<svg xmlns="http://www.w3.org/2000/svg" width="125.917" height="85.915" viewBox="0 0 125.917 85.915">
  <g id="Group_37" data-name="Group 37" transform="translate(-1141 -1482)">
    <g id="Group_24" data-name="Group 24" transform="translate(1215.008 1495.681)">
      <g id="Group_25" data-name="Group 25" transform="translate(0 0)">
        <g id="Group_24-2" data-name="Group 24" transform="translate(11.798)">
          <path id="Path_295" data-name="Path 295" d="M87.386,0,70.87,28.314H90.128a7.553,7.553,0,0,0,6.523-3.746L110.981,0Zm6.075,23.376a4.246,4.246,0,0,1-3.669,2.108H85.139l7.978-13.676A2.83,2.83,0,0,1,95.562,10.4h5.465Zm7.054-14.883H95.049l2.727-4.675h7.092l-1.908,3.27A2.828,2.828,0,0,1,100.514,8.494Z" transform="translate(-70.87)" fill="#fff"/>
        </g>
        <g id="Blau_Verlauf_hell">
          <path id="Path_296" data-name="Path 296" d="M28.314,0,11.8,28.314H0L14.332,3.746A7.548,7.548,0,0,1,20.853,0Z" fill="#0066b1"/>
        </g>
      </g>
    </g>
    <g id="BMW-logo-grey-fallback-53px" transform="translate(1141 1482)">
      <g id="BMW-logo" transform="translate(0 0)">
        <g id="BMW-logo-fallback">
          <g id="BMW_Grey-Colour_RGB-2">
            <g id="BMW_Grey-Colour_RGB">
              <path id="Shape" d="M36.739,8.9A27.839,27.839,0,1,0,64.577,36.739,27.894,27.894,0,0,0,36.739,8.9ZM62.787,36.739A26.048,26.048,0,1,1,36.739,10.69,26.032,26.032,0,0,1,62.787,36.739Z" transform="translate(-8.9 -8.9)" fill="#fff"/>
              <g id="Group" transform="translate(7.564 3.422)">
                <path id="W_61_" d="M155.652,44.348c.429.429.933,1.059,1.261,1.463l5.674-3.581c-.3-.3-.731-.933-1.059-1.261l-3.581,2.32-.2.2.2-.3,1.563-3.152-1.16-1.16L155.2,40.44l-.3.2.2-.2,2.32-3.581c-.429-.3-.832-.63-1.362-1.059L152.5,41.4c.429.3,1.059.832,1.463,1.16l3.354-1.79.2-.1-.2.2Z" transform="translate(-122.039 -31.614)" fill="#fff"/>
                <path id="M_61_" d="M100.515,24.773l1.563-3.455.1-.3v.3l.2,4.615a10.932,10.932,0,0,1,1.689.2l-.2-6.733c-.731-.1-1.563-.1-2.32-.2l-1.463,3.782-.1.3-.1-.3L98.422,19.2a18.4,18.4,0,0,0-2.32.2l-.2,6.733a9.654,9.654,0,0,1,1.689-.2l.2-4.615v-.3l.1.3,1.563,3.455Z" transform="translate(-79.711 -19.2)" fill="#fff"/>
                <path id="B_x5F_22d_61_" d="M40.1,46.329c.832-.933,1.362-1.992.53-3.051a1.969,1.969,0,0,0-1.992-.429h-.1v-.1A1.529,1.529,0,0,0,38,41.059a1.339,1.339,0,0,0-1.261-.3c-.832.1-1.463.63-3.253,2.622-.53.63-1.261,1.463-1.79,2.093l4.842,4.514C38.206,48.22,38.836,47.59,40.1,46.329Zm-6.3-1.16a32.72,32.72,0,0,1,2.421-2.622.85.85,0,0,1,.53-.3.6.6,0,0,1,.731.429.879.879,0,0,1-.3.832c-.53.53-2.421,2.522-2.421,2.522Zm1.891,1.79s1.79-1.891,2.421-2.522c.2-.2.429-.429.53-.429a.694.694,0,0,1,.63,0c.2.1.3.3.2.63a3.291,3.291,0,0,1-.429.731c-.2.3-2.421,2.522-2.421,2.622Z" transform="translate(-31.7 -35.284)" fill="#fff"/>
              </g>
              <path id="Path" d="M70.391,53.9V70.391H53.9A16.53,16.53,0,0,1,70.391,53.9Z" transform="translate(-42.553 -42.553)" fill="#0166b1"/>
              <path id="Path_1_" d="M135.791,119.3A16.465,16.465,0,0,1,119.3,135.791V119.3Z" transform="translate(-91.461 -91.461)" fill="#0166b1"/>
              <path id="Path_3_" d="M135.791,70.391H119.3V53.9A16.514,16.514,0,0,1,135.791,70.391Z" transform="translate(-91.461 -42.553)" fill="#fff"/>
              <path id="Path_2_" d="M70.391,135.791A16.465,16.465,0,0,1,53.9,119.3H70.391Z" transform="translate(-42.553 -91.461)" fill="#fff"/>
            </g>
          </g>
        </g>
      </g>
    </g>
    <text id="_bornelectric" data-name="#bornelectric" transform="translate(1141 1563.915)" fill="#fff" font-size="14" font-family="BMWTypeNextTT-Light, BMWTypeNextTT" font-weight="300" letter-spacing="0.05em"><tspan x="0" y="0">#bornelectric</tspan></text>
  </g>
</svg>
